<svg width="1200" height="760" viewBox="0 0 1200 760" fill="none" xmlns="http://www.w3.org/2000/svg">
  <rect width="1200" height="760" fill="#F8FAFC"/>
  <rect x="48" y="40" width="1104" height="680" rx="10" fill="white" stroke="#E2E8F0"/>
  <text x="88" y="96" font-family="Arial, sans-serif" font-size="28" font-weight="700" fill="#0F172A">Refund Agent Flow</text>
  <text x="88" y="124" font-family="Arial, sans-serif" font-size="14" fill="#64748B">LangGraph execution with idempotency keys, HITL approval, and audit trail</text>
  <g transform="translate(96 184)">
    <rect width="168" height="76" rx="8" fill="#EFF6FF" stroke="#BFDBFE"/>
    <text x="28" y="45" font-family="Arial" font-size="15" font-weight="700" fill="#1D4ED8">classify_intent</text>
  </g>
  <g transform="translate(304 184)">
    <rect width="168" height="76" rx="8" fill="#F8FAFC" stroke="#CBD5E1"/>
    <text x="34" y="45" font-family="Arial" font-size="15" font-weight="700" fill="#334155">lookup_order</text>
  </g>
  <g transform="translate(512 184)">
    <rect width="168" height="76" rx="8" fill="#FFF7ED" stroke="#FED7AA"/>
    <text x="42" y="45" font-family="Arial" font-size="15" font-weight="700" fill="#C2410C">check_risk</text>
  </g>
  <g transform="translate(720 184)">
    <rect width="168" height="76" rx="8" fill="#FEF2F2" stroke="#FECACA"/>
    <text x="34" y="45" font-family="Arial" font-size="15" font-weight="700" fill="#B91C1C">human_review</text>
  </g>
  <g transform="translate(928 184)">
    <rect width="168" height="76" rx="8" fill="#ECFDF5" stroke="#BBF7D0"/>
    <text x="31" y="45" font-family="Arial" font-size="15" font-weight="700" fill="#047857">execute_refund</text>
  </g>
  <path d="M264 222 H304" stroke="#94A3B8" stroke-width="2"/>
  <path d="M472 222 H512" stroke="#94A3B8" stroke-width="2"/>
  <path d="M680 222 H720" stroke="#94A3B8" stroke-width="2"/>
  <path d="M888 222 H928" stroke="#94A3B8" stroke-width="2"/>
  <rect x="96" y="336" width="1000" height="124" rx="8" fill="#F8FAFC" stroke="#E2E8F0"/>
  <text x="128" y="376" font-family="Arial" font-size="18" font-weight="700" fill="#0F172A">Production Guards</text>
  <text x="128" y="410" font-family="Arial" font-size="15" fill="#475569">Redis SET NX: ticket / refund / notification idempotency keys</text>
  <text x="128" y="438" font-family="Arial" font-size="15" fill="#475569">DB final guard: deterministic refund id + unique RefundLog.refund_id</text>
  <rect x="96" y="500" width="1000" height="124" rx="8" fill="#F8FAFC" stroke="#E2E8F0"/>
  <text x="128" y="540" font-family="Arial" font-size="18" font-weight="700" fill="#0F172A">Observability</text>
  <text x="128" y="574" font-family="Arial" font-size="15" fill="#475569">AuditLog captures node duration, success flag, token usage fields, replayable trace id</text>
  <text x="128" y="602" font-family="Arial" font-size="15" fill="#475569">Dashboard aggregates avg / P50 / P95 latency, failure rate, failed traces, and token totals</text>
</svg>
